<svg width="47" height="33" viewBox="0 0 47 33" fill="none" xmlns="http://www.w3.org/2000/svg">
<path d="M40.315 4.40001C38.605 1.60001 35.47 0.200012 32.05 0.200012H14.95C11.53 0.200012 8.39501 1.60001 6.68501 4.40001C0.13001 14.2 -1.29499 29.04 3.26501 32.12C7.82501 35.2 18.085 21.76 23.5 21.76C28.915 21.76 38.89 35.2 43.735 32.12C48.295 29.04 46.87 14.2 40.315 4.40001ZM17.8 14.2H14.95V17H12.1V14.2H9.25001V11.4H12.1V8.60001H14.95V11.4H17.8V14.2ZM33.19 15.6C33.19 17 32.05 18.12 30.625 18.12C29.2 18.12 28.06 17 28.06 15.6C28.06 14.2 29.2 13.08 30.625 13.08C32.05 13.08 33.19 14.2 33.19 15.6ZM38.605 10C38.605 11.4 37.465 12.52 36.04 12.52C34.615 12.52 33.475 11.4 33.475 10C33.475 8.60001 34.615 7.48001 36.04 7.48001C37.465 7.48001 38.605 8.60001 38.605 10Z" fill="url(#paint0_linear_308_8)"/>
<defs>
<linearGradient id="paint0_linear_308_8" x1="23.5" y1="0.200012" x2="23.5" y2="32.5787" gradientUnits="userSpaceOnUse">
<stop stop-color="#EBEBEB"/>
<stop offset="1" stop-color="#E16E91"/>
</linearGradient>
</defs>
</svg>
