<svg width="1380" height="976" viewBox="0 0 1380 976" fill="none" xmlns="http://www.w3.org/2000/svg">
<path d="M1196.87 126.602C1145.33 42.2006 1050.83 0 947.732 0H432.268C329.175 0 234.673 42.2006 183.126 126.602C-14.4684 422.006 -57.4238 869.333 80.0334 962.174C217.491 1055.02 526.769 649.889 690 649.889C853.23 649.889 1153.92 1055.02 1299.97 962.174C1437.42 869.333 1394.47 422.006 1196.87 126.602ZM518.178 422.006H432.268V506.407H346.357V422.006H260.446V337.605H346.357V253.204H432.268V337.605H518.178V422.006ZM982.097 464.207C982.097 506.407 947.732 540.168 904.777 540.168C861.822 540.168 827.457 506.407 827.457 464.207C827.457 422.006 861.822 388.246 904.777 388.246C947.732 388.246 982.097 422.006 982.097 464.207ZM1145.33 295.404C1145.33 337.605 1110.96 371.365 1068.01 371.365C1025.05 371.365 990.688 337.605 990.688 295.404C990.688 253.204 1025.05 219.443 1068.01 219.443C1110.96 219.443 1145.33 253.204 1145.33 295.404Z" fill="url(#paint0_linear_333_194)" fill-opacity="0.1"/>
<defs>
<linearGradient id="paint0_linear_333_194" x1="690" y1="0" x2="690" y2="976" gradientUnits="userSpaceOnUse">
<stop stop-color="#EBEBEB"/>
<stop offset="1" stop-color="#E16E91"/>
</linearGradient>
</defs>
</svg>
