<svg width="203" height="56" viewBox="0 0 203 56" fill="none" xmlns="http://www.w3.org/2000/svg">
<path d="M45.315 15.4C43.605 12.6 40.47 11.2 37.05 11.2H19.95C16.53 11.2 13.395 12.6 11.685 15.4C5.13001 25.2 3.70501 40.04 8.26501 43.12C12.825 46.2 23.085 32.76 28.5 32.76C33.915 32.76 43.89 46.2 48.735 43.12C53.295 40.04 51.87 25.2 45.315 15.4ZM22.8 25.2H19.95V28H17.1V25.2H14.25V22.4H17.1V19.6H19.95V22.4H22.8V25.2ZM38.19 26.6C38.19 28 37.05 29.12 35.625 29.12C34.2 29.12 33.06 28 33.06 26.6C33.06 25.2 34.2 24.08 35.625 24.08C37.05 24.08 38.19 25.2 38.19 26.6ZM43.605 21C43.605 22.4 42.465 23.52 41.04 23.52C39.615 23.52 38.475 22.4 38.475 21C38.475 19.6 39.615 18.48 41.04 18.48C42.465 18.48 43.605 19.6 43.605 21Z" fill="url(#paint0_linear_513_2)"/>
<path d="M66.5898 28.2617V26.457C66.5898 21.4583 67.8073 17.6699 70.2422 15.0918C72.6914 12.4993 75.9785 11.2031 80.1035 11.2031C83.8275 11.2031 86.7064 12.1198 88.7402 13.9531C90.7884 15.7721 91.8197 18.1211 91.834 21V21.7305H84.8945V21.2793C84.8945 19.8327 84.472 18.6797 83.627 17.8203C82.7819 16.9609 81.5215 16.5312 79.8457 16.5312C78.041 16.5312 76.6159 17.2331 75.5703 18.6367C74.5247 20.026 74.002 22.1602 74.002 25.0391V29.7441C74.002 32.5944 74.5677 34.7428 75.6992 36.1895C76.8307 37.6217 78.3919 38.3379 80.3828 38.3379C81.3711 38.3379 82.2305 38.2161 82.9609 37.9727C83.6914 37.7292 84.3789 37.3496 85.0234 36.834V31.4414H79.9531V26.457L91.8984 26.4355V39.1758C91.0104 40.1641 89.5996 41.138 87.666 42.0977C85.7467 43.043 83.2975 43.5156 80.3184 43.5156C76.0931 43.5156 72.7487 42.2266 70.2852 39.6484C67.8216 37.056 66.5898 33.2604 66.5898 28.2617ZM94.6914 36.9199C94.6914 34.7142 95.5579 33.0026 97.291 31.7852C99.0241 30.5677 101.28 29.959 104.059 29.959H108.828V28.6914C108.828 27.7461 108.592 27.0085 108.119 26.4785C107.646 25.9486 106.852 25.6836 105.734 25.6836C104.632 25.6836 103.815 25.9128 103.285 26.3711C102.77 26.8151 102.512 27.4095 102.512 28.1543V28.5625L95.9805 28.541V28.0898C95.9805 26.1276 96.9043 24.5378 98.752 23.3203C100.6 22.0885 103.07 21.4727 106.164 21.4727C109.301 21.4727 111.686 22.0671 113.318 23.2559C114.951 24.4447 115.768 26.321 115.768 28.8848V38.2305C115.768 39.0898 115.839 39.9062 115.982 40.6797C116.14 41.4531 116.362 42.1191 116.648 42.6777V43H109.795C109.594 42.6562 109.43 42.2337 109.301 41.7324C109.172 41.2311 109.079 40.7227 109.021 40.207C108.563 41.0091 107.725 41.7324 106.508 42.377C105.305 43.0215 103.786 43.3438 101.953 43.3438C99.776 43.3438 98.0215 42.8066 96.6895 41.7324C95.3574 40.6439 94.6914 39.0397 94.6914 36.9199ZM101.588 36.3613C101.588 37.2637 101.846 37.9655 102.361 38.4668C102.877 38.9538 103.65 39.1973 104.682 39.1973C105.799 39.1973 106.766 38.8249 107.582 38.0801C108.413 37.321 108.828 36.4401 108.828 35.4375V33.6758H105.799C104.367 33.6758 103.307 33.8906 102.619 34.3203C101.932 34.75 101.588 35.4303 101.588 36.3613ZM120.215 43V22.0527H126.939L127.004 24.8242H127.09C127.777 23.8073 128.673 23.0124 129.775 22.4395C130.893 21.8522 132.153 21.5586 133.557 21.5586C135.061 21.5586 136.357 21.8737 137.445 22.5039C138.534 23.1341 139.307 24.0579 139.766 25.2754H139.83C140.589 24.0866 141.613 23.1699 142.902 22.5254C144.191 21.8809 145.595 21.5586 147.113 21.5586C149.204 21.5586 150.887 22.1816 152.162 23.4277C153.437 24.6595 154.074 26.7148 154.074 29.5938V43H147.113V30.1738C147.113 28.9564 146.863 28.0898 146.361 27.5742C145.874 27.0443 145.165 26.7721 144.234 26.7578C143.418 26.7578 142.702 27.0085 142.086 27.5098C141.484 27.9967 140.997 28.6413 140.625 29.4434V43H133.664V30.1953C133.664 28.9779 133.413 28.1042 132.912 27.5742C132.411 27.0299 131.688 26.7578 130.742 26.7578C129.926 26.7578 129.217 27.0013 128.615 27.4883C128.014 27.9753 127.534 28.627 127.176 29.4434V43H120.215ZM157.275 32.8164V32.1289C157.275 28.8776 158.292 26.2852 160.326 24.3516C162.374 22.4036 165.067 21.4297 168.404 21.4297C171.699 21.4297 174.255 22.3607 176.074 24.2227C177.893 26.0703 178.803 28.6126 178.803 31.8496V33.9336H161.336V30.1738H172.035V29.8945C172.049 28.8633 171.742 28.0039 171.111 27.3164C170.495 26.6289 169.572 26.2852 168.34 26.2852C166.979 26.2852 165.948 26.7793 165.246 27.7676C164.544 28.7559 164.193 30.0091 164.193 31.5273V32.9883C164.193 34.7643 164.573 36.1536 165.332 37.1562C166.105 38.1445 167.215 38.6387 168.662 38.6387C169.722 38.6387 170.61 38.4095 171.326 37.9512C172.057 37.4785 172.637 36.8913 173.066 36.1895L178.566 38.3164C177.879 39.9206 176.719 41.2025 175.086 42.1621C173.467 43.1074 171.355 43.5801 168.748 43.5801C165.139 43.5801 162.324 42.6133 160.305 40.6797C158.285 38.7318 157.275 36.1107 157.275 32.8164ZM181.037 36.2754L187.396 36.3398V36.7266C187.396 37.7148 187.719 38.4167 188.363 38.832C189.022 39.2331 189.896 39.4336 190.984 39.4336C192.073 39.4336 192.875 39.2546 193.391 38.8965C193.921 38.5384 194.186 38.0228 194.186 37.3496C194.186 36.6764 193.863 36.168 193.219 35.8242C192.574 35.4805 191.228 35.1081 189.18 34.707C186.53 34.2057 184.596 33.418 183.379 32.3438C182.176 31.2552 181.574 29.8014 181.574 27.9824C181.574 25.8913 182.419 24.2728 184.109 23.127C185.814 21.9811 188.148 21.4082 191.113 21.4082C194.049 21.4082 196.363 22.0026 198.053 23.1914C199.757 24.3802 200.609 26.0417 200.609 28.1758V28.541H194.25V28.1328C194.25 27.3021 193.971 26.6862 193.412 26.2852C192.868 25.8841 192.066 25.6836 191.006 25.6836C190.018 25.6836 189.301 25.8411 188.857 26.1562C188.413 26.4714 188.191 26.9225 188.191 27.5098C188.191 28.0684 188.514 28.5195 189.158 28.8633C189.817 29.1927 191.178 29.5579 193.24 29.959C195.976 30.4603 197.967 31.2266 199.213 32.2578C200.473 33.2891 201.104 34.707 201.104 36.5117C201.104 38.8177 200.251 40.5723 198.547 41.7754C196.842 42.9642 194.365 43.5586 191.113 43.5586C187.919 43.5586 185.449 42.957 183.701 41.7539C181.968 40.5508 181.08 38.8392 181.037 36.6191V36.2754Z" fill="#D9D9D9"/>
<defs>
<linearGradient id="paint0_linear_513_2" x1="28.5" y1="11.2" x2="28.5" y2="43.5787" gradientUnits="userSpaceOnUse">
<stop stop-color="#EBEBEB"/>
<stop offset="1" stop-color="#E16E91"/>
</linearGradient>
</defs>
</svg>
