<svg width="23" height="24" viewBox="0 0 23 24" fill="none" xmlns="http://www.w3.org/2000/svg">
<path d="M5.26631 21.1253C4.01469 21.1253 3 20.084 3 18.7984V9.44629C3 8.73973 3.31344 8.07036 3.85 7.62942L10.0837 2.51029C10.482 2.18048 10.9829 2 11.5 2C12.0171 2 12.518 2.18048 12.9163 2.51029L19.1489 7.62942C19.6866 8.07036 20 8.73973 20 9.44629V18.7984C20 20.084 18.9853 21.1253 17.7337 21.1253H5.26631Z" stroke="#9B9B9B" stroke-width="1.5" stroke-linecap="round" stroke-linejoin="round"/>
<path d="M8.84375 21.1253V15.2816C8.84375 14.718 9.06763 14.1775 9.46615 13.779C9.86466 13.3804 10.4052 13.1566 10.9688 13.1566H12.0312C12.5948 13.1566 13.1353 13.3804 13.5339 13.779C13.9324 14.1775 14.1562 14.718 14.1562 15.2816V21.1253" stroke="#9B9B9B" stroke-width="1.5" stroke-linecap="round" stroke-linejoin="round"/>
</svg>
