<svg width="15" height="13" viewBox="0 0 15 13" fill="none" xmlns="http://www.w3.org/2000/svg">
<path d="M5.125 9.375C5.79167 10.0208 6.58333 10.3438 7.5 10.3438C8.41667 10.3438 9.19792 10.0208 9.84375 9.375C10.5104 8.70833 10.8438 7.91667 10.8438 7C10.8438 6.08333 10.5104 5.30208 9.84375 4.65625C9.19792 3.98958 8.41667 3.65625 7.5 3.65625C6.58333 3.65625 5.79167 3.98958 5.125 4.65625C4.47917 5.30208 4.15625 6.08333 4.15625 7C4.15625 7.91667 4.47917 8.70833 5.125 9.375ZM5.5 0.34375H9.5L10.7188 1.65625H12.8438C13.1979 1.65625 13.5 1.79167 13.75 2.0625C14.0208 2.33333 14.1562 2.64583 14.1562 3V11C14.1562 11.3542 14.0208 11.6667 13.75 11.9375C13.5 12.2083 13.1979 12.3438 12.8438 12.3438H2.15625C1.80208 12.3438 1.48958 12.2083 1.21875 11.9375C0.96875 11.6667 0.84375 11.3542 0.84375 11V3C0.84375 2.64583 0.96875 2.33333 1.21875 2.0625C1.48958 1.79167 1.80208 1.65625 2.15625 1.65625H4.28125L5.5 0.34375ZM6 8.5C5.58333 8.08333 5.375 7.58333 5.375 7C5.375 6.41667 5.58333 5.91667 6 5.5C6.41667 5.08333 6.91667 4.875 7.5 4.875C8.08333 4.875 8.58333 5.08333 9 5.5C9.41667 5.91667 9.625 6.41667 9.625 7C9.625 7.58333 9.41667 8.08333 9 8.5C8.58333 8.91667 8.08333 9.125 7.5 9.125C6.91667 9.125 6.41667 8.91667 6 8.5Z" fill="black"/>
</svg>
